<?xml version="1.0" standalone="no"?>
<!DOCTYPE svg PUBLIC "-//W3C//DTD SVG 20010904//EN"
 "http://www.w3.org/TR/2001/REC-SVG-20010904/DTD/svg10.dtd">
<svg version="1.0" xmlns="http://www.w3.org/2000/svg"
 width="240.000000pt" height="240.000000pt" viewBox="0 0 240.000000 240.000000"
 preserveAspectRatio="xMidYMid meet">

<g transform="translate(0.000000,240.000000) scale(0.100000,-0.100000)"
fill="#000000" stroke="none">
<path d="M1056 2389 c-401 -55 -726 -279 -915 -629 -78 -145 -142 -385 -102
-385 9 0 19 22 27 64 21 100 52 188 105 291 121 236 328 428 577 536 567 245
1237 -13 1502 -578 45 -96 87 -236 96 -317 l6 -56 -146 210 c-200 288 -197
285 -251 285 -51 0 -61 -10 -189 -197 -43 -62 -80 -114 -84 -117 -4 -2 -97
127 -207 286 -110 160 -211 301 -224 314 -27 27 -84 32 -113 11 -9 -8 -101
-135 -203 -283 -103 -148 -193 -275 -200 -282 -10 -11 -26 7 -90 100 -107 156
-119 168 -170 168 -30 0 -47 -6 -62 -22 -12 -13 -110 -151 -218 -308 l-198
-284 12 -107 c58 -541 428 -951 961 -1065 121 -26 342 -24 470 3 456 98 805
432 921 883 96 371 -1 777 -255 1071 -170 197 -397 332 -655 390 -102 22 -298
32 -395 18z m226 -398 l58 -84 -31 -23 c-27 -19 -35 -21 -52 -11 -52 32 -63
36 -82 30 -11 -3 -31 -14 -44 -24 -30 -24 -30 -24 -64 6 l-27 24 37 53 c83
120 83 119 116 116 26 -3 39 -16 89 -87z m-235 -141 c33 -26 77 -25 113 2 l30
22 30 -22 c37 -28 80 -28 114 -1 15 12 31 18 35 13 42 -45 281 -408 277 -419
-4 -11 -155 -233 -172 -254 -2 -2 -12 3 -21 11 -32 28 -81 48 -118 48 -49 0
-47 -27 3 -36 52 -9 97 -39 124 -82 l23 -37 0 -509 0 -510 -25 -6 c-14 -4 -40
-10 -57 -13 l-33 -6 -2 517 c-3 483 -4 517 -20 520 -17 3 -18 -27 -18 -516 0
-582 7 -532 -76 -532 l-44 0 0 526 c0 495 -1 525 -17 522 -17 -3 -18 -37 -21
-526 l-2 -522 -23 0 c-12 0 -39 3 -60 6 l-38 7 3 571 3 571 30 54 c31 56 88
106 148 128 58 21 67 17 67 -28 0 -33 3 -40 18 -37 19 3 28 53 17 95 l-6 25
-187 -4 c-191 -4 -211 -8 -274 -50 l-27 -18 -46 64 -46 65 132 191 c72 104
134 190 136 190 3 0 16 -9 30 -20z m-483 -161 c31 -44 56 -84 56 -88 0 -11
-45 -41 -61 -41 -6 0 -22 9 -36 20 -14 11 -36 20 -48 20 -12 0 -34 -9 -48 -20
-31 -25 -45 -25 -77 -1 l-25 20 58 85 c82 120 100 121 181 5z m1483 -6 l58
-84 -25 -20 c-32 -24 -46 -24 -77 1 -14 11 -36 20 -48 20 -12 0 -34 -9 -48
-20 -31 -25 -45 -25 -77 -1 l-25 20 58 85 c83 121 101 121 184 -1z m-1710
-143 c14 -11 38 -20 53 -20 15 0 39 9 53 20 14 11 28 20 32 20 4 0 18 -9 32
-20 14 -11 40 -20 58 -20 19 0 39 8 50 20 25 28 36 25 65 -18 14 -20 50 -72
79 -115 49 -71 52 -79 39 -95 -9 -9 -26 -37 -39 -62 l-24 -45 -5 -532 -5 -532
-70 38 -70 37 -5 200 c-4 168 -7 199 -20 199 -13 0 -16 -29 -20 -183 l-5 -183
-33 28 -32 28 -3 155 c-2 130 -4 155 -17 155 -12 0 -15 -23 -18 -139 l-3 -139
-34 33 -35 34 0 133 0 132 108 3 c87 2 107 6 107 18 0 8 -10 16 -22 18 -21 3
-23 8 -23 74 0 38 -8 99 -17 134 l-17 64 -47 0 -46 0 -21 -74 c-12 -41 -22
-101 -22 -134 0 -51 -3 -60 -20 -65 -19 -5 -20 -14 -20 -126 0 -67 -3 -121 -7
-121 -16 1 -107 140 -153 235 -55 112 -93 235 -109 349 -20 139 -24 127 116
330 71 102 132 185 136 186 5 0 20 -9 34 -20z m1480 0 c14 -11 38 -20 53 -20
15 0 39 9 53 20 14 11 28 20 32 20 4 0 18 -9 32 -20 14 -11 38 -20 53 -20 15
0 39 9 53 20 14 11 29 20 34 20 4 -1 59 -74 121 -164 109 -159 112 -165 112
-217 0 -156 -56 -367 -136 -518 -45 -86 -123 -200 -136 -201 -4 0 -9 156 -10
348 -3 301 -5 347 -18 347 -13 0 -15 -50 -18 -376 l-2 -376 -25 -23 -25 -23 0
67 c0 59 -2 67 -17 64 -15 -3 -18 -17 -21 -90 -3 -79 -5 -88 -27 -102 l-25
-16 0 106 c0 95 -2 105 -17 102 -16 -3 -18 -18 -21 -122 -2 -99 -6 -122 -20
-132 -9 -7 -20 -14 -24 -14 -4 0 -9 60 -10 132 -3 117 -5 133 -20 136 -17 3
-18 -9 -18 -147 0 -138 -2 -151 -19 -161 -11 -5 -22 -10 -25 -10 -3 0 -6 234
-6 520 l0 520 181 0 c166 0 180 1 177 18 -3 15 -21 17 -198 17 l-195 0 -3
-551 -2 -552 -71 -26 c-38 -14 -72 -26 -75 -26 -2 0 -4 215 -4 478 0 392 -3
488 -15 535 l-15 58 138 199 c75 110 141 200 145 200 5 0 20 -9 34 -20z m-702
-191 c-25 -23 -57 -67 -72 -98 l-28 -56 -3 -569 -3 -568 -41 6 c-23 4 -45 9
-50 12 -4 3 -8 232 -8 510 0 476 -1 505 -17 502 -17 -3 -18 -36 -21 -501 -1
-273 -4 -497 -5 -497 -2 0 -24 7 -50 16 l-47 16 0 522 c0 597 -1 586 80 667
59 59 111 77 222 78 l88 1 -45 -41z m-638 -447 l12 -42 -40 0 c-38 0 -39 1
-33 28 18 73 42 79 61 14z m13 -137 l0 -55 -45 0 -45 0 0 55 0 55 45 0 45 0 0
-55z"/>
<path d="M430 1146 c0 -100 1 -106 20 -106 20 0 21 5 18 102 -3 89 -5 103 -20
106 -16 3 -18 -7 -18 -102z"/>
<path d="M1777 1154 c-4 -4 -7 -68 -7 -141 0 -123 2 -134 18 -131 15 3 17 18
17 137 0 126 -6 156 -28 135z"/>
<path d="M1867 1154 c-4 -4 -7 -67 -7 -141 0 -127 1 -133 20 -133 20 0 20 5
18 137 -3 127 -10 158 -31 137z"/>
<path d="M1955 1148 c-3 -8 -4 -70 -3 -138 3 -110 5 -125 21 -128 16 -3 17 7
15 134 -2 99 -6 139 -15 142 -7 2 -15 -3 -18 -10z"/>
<path d="M1770 685 c0 -128 1 -135 20 -135 19 0 20 7 20 135 0 128 -1 135 -20
135 -19 0 -20 -7 -20 -135z"/>
<path d="M1860 685 c0 -128 1 -135 20 -135 19 0 20 7 20 135 0 128 -1 135 -20
135 -19 0 -20 -7 -20 -135z"/>
<path d="M1957 813 c-4 -3 -7 -64 -7 -135 0 -121 1 -128 20 -128 19 0 20 7 20
135 0 106 -3 135 -13 135 -8 0 -17 -3 -20 -7z"/>
</g>
</svg>
