<?xml version="1.0" standalone="no"?>
<!DOCTYPE svg PUBLIC "-//W3C//DTD SVG 20010904//EN"
 "http://www.w3.org/TR/2001/REC-SVG-20010904/DTD/svg10.dtd">
<svg version="1.0" xmlns="http://www.w3.org/2000/svg"
 width="240.000000pt" height="240.000000pt" viewBox="0 0 240.000000 240.000000"
 preserveAspectRatio="xMidYMid meet">

<g transform="translate(0.000000,240.000000) scale(0.100000,-0.100000)"
fill="#000000" stroke="none">
<path d="M1065 2394 c-92 -14 -198 -39 -260 -61 -397 -143 -692 -480 -781
-893 -25 -114 -25 -373 -1 -478 110 -482 465 -836 937 -938 114 -25 373 -25
478 -1 253 58 463 175 631 352 76 80 170 215 210 302 l24 52 -243 430 c-133
237 -252 438 -263 446 -16 11 -51 15 -134 15 -109 0 -114 -1 -142 -27 -16 -16
-117 -183 -223 -373 l-193 -345 -5 180 c-5 177 -5 180 -27 183 -19 3 -23 10
-23 43 l0 39 -105 0 -105 0 0 -40 c0 -36 -3 -40 -24 -40 -21 0 -25 5 -28 38
l-3 37 -105 0 -105 0 -3 -37 c-3 -30 -7 -38 -23 -38 -18 0 -19 -9 -19 -245 l0
-245 -35 0 -35 0 0 281 c0 272 -1 281 -20 286 -14 4 -20 14 -20 32 0 46 -11
52 -86 49 l-69 -3 -3 -37 c-3 -30 -7 -38 -23 -38 -18 0 -19 -10 -19 -285 l0
-285 -44 0 -44 0 -20 58 c-153 420 -47 889 272 1208 195 196 426 305 709 336
182 19 386 -13 566 -90 290 -125 534 -387 634 -682 73 -215 84 -445 30 -658
-12 -49 -13 -66 -4 -75 60 -59 102 384 57 593 -100 464 -457 827 -916 931 -83
19 -329 33 -395 23z m717 -831 c12 -14 398 -696 447 -790 l12 -23 -571 0
c-517 0 -570 1 -570 16 0 18 424 777 447 800 11 10 41 14 117 14 86 0 105 -3
118 -17z m-1412 -223 c0 -16 -7 -20 -35 -20 -28 0 -35 4 -35 20 0 16 7 20 35
20 28 0 35 -4 35 -20z m40 -325 l0 -265 -25 0 -25 0 -2 247 c-3 227 -4 248
-20 251 -17 3 -18 -14 -18 -247 l0 -251 -30 0 -30 0 0 265 0 265 75 0 75 0 0
-265z m330 245 c0 -18 -7 -20 -60 -20 -53 0 -60 2 -60 20 0 18 7 20 60 20 53
0 60 -2 60 -20z m270 0 c0 -18 -7 -20 -65 -20 -58 0 -65 2 -65 20 0 18 7 20
65 20 58 0 65 -2 65 -20z m-220 -285 c0 -218 -1 -225 -20 -225 -19 0 -20 8
-22 197 -3 179 -5 198 -20 201 -17 3 -18 -11 -18 -197 l0 -201 -25 0 -25 0 -2
197 c-3 179 -5 198 -20 201 -17 3 -18 -11 -18 -197 l0 -201 -25 0 -25 0 0 225
0 225 110 0 110 0 0 -225z m270 0 l0 -225 -25 0 -25 0 0 200 c0 193 -1 200
-20 200 -19 0 -20 -7 -20 -200 l0 -200 -25 0 -25 0 0 201 c0 186 -1 200 -17
197 -16 -3 -18 -22 -21 -201 l-2 -197 -25 0 -25 0 0 225 0 225 115 0 115 0 0
-225z m1180 -277 c0 -7 -11 -31 -23 -53 l-23 -40 -333 -3 c-309 -2 -332 -3
-329 -20 3 -16 28 -17 316 -20 171 -1 312 -5 312 -8 0 -2 -15 -25 -32 -49
l-33 -44 -170 -3 c-143 -3 -170 -5 -170 -18 0 -13 24 -15 149 -18 l150 -3 -49
-49 -49 -50 -291 0 c-159 0 -296 -4 -304 -9 -8 -5 -11 -16 -8 -25 5 -14 40
-16 269 -18 l263 -3 -74 -47 -75 -48 -169 0 c-155 0 -168 -1 -165 -17 3 -16
19 -19 118 -23 l115 -5 -65 -22 c-130 -43 -218 -56 -370 -56 -152 0 -240 13
-370 56 l-65 22 60 5 c44 4 60 9 60 20 0 12 -22 16 -115 20 l-115 5 -70 45
-70 45 220 5 c212 5 220 6 220 25 0 19 -8 20 -256 23 l-255 2 -49 50 c-36 36
-44 50 -31 50 34 0 13 35 -24 40 -26 4 -42 16 -68 50 l-35 45 169 5 c141 4
169 7 169 20 0 13 -28 15 -182 18 l-182 2 -26 44 c-14 23 -25 48 -25 54 0 9
257 12 1040 12 825 0 1040 -3 1040 -12z"/>
<path d="M1556 1495 c-12 -32 -7 -142 8 -154 25 -21 37 11 34 90 -2 59 -6 74
-19 77 -9 2 -19 -4 -23 -13z"/>
<path d="M1644 1497 c-2 -7 -3 -62 -2 -123 3 -94 5 -109 21 -112 15 -3 17 8
17 122 0 107 -2 126 -15 126 -9 0 -18 -6 -21 -13z"/>
<path d="M1735 1497 c-3 -7 -5 -47 -3 -88 2 -58 6 -74 18 -74 12 0 15 16 15
84 0 59 -4 86 -12 88 -7 3 -15 -2 -18 -10z"/>
<path d="M634 589 c-15 -25 22 -29 252 -27 218 3 239 5 242 21 3 16 -14 17
-242 17 -165 0 -247 -4 -252 -11z"/>
<path d="M1192 583 c3 -16 18 -18 138 -18 120 0 135 2 138 18 3 16 -9 17 -138
17 -129 0 -141 -1 -138 -17z"/>
<path d="M447 453 c-4 -3 -7 -12 -7 -20 0 -10 42 -13 213 -13 118 0 216 3 220
6 3 3 3 12 0 20 -4 11 -44 14 -212 14 -114 0 -211 -3 -214 -7z"/>
<path d="M935 449 c-4 -6 -3 -15 2 -20 5 -5 164 -8 384 -7 325 3 374 5 374 18
0 13 -50 15 -377 18 -266 1 -379 -1 -383 -9z"/>
<path d="M1031 311 c-8 -5 -11 -16 -8 -25 6 -14 24 -16 134 -14 120 3 128 4
128 23 0 19 -8 20 -120 23 -66 1 -126 -2 -134 -7z"/>
<path d="M950 150 c0 -20 5 -20 192 -18 174 3 193 5 196 21 3 16 -11 17 -192
17 -190 0 -196 -1 -196 -20z"/>
<path d="M910 2094 c0 -57 2 -65 18 -62 14 3 18 16 20 66 3 57 1 62 -18 62
-18 0 -20 -6 -20 -66z"/>
<path d="M703 2064 c-6 -17 62 -94 84 -94 26 0 12 39 -27 74 -45 41 -48 42
-57 20z"/>
<path d="M1091 2036 c-40 -41 -47 -66 -17 -66 21 0 89 77 83 94 -9 24 -19 20
-66 -28z"/>
<path d="M853 1960 c-101 -61 -76 -220 40 -251 112 -30 209 86 162 192 -34 74
-131 103 -202 59z m134 -35 c34 -24 47 -76 29 -118 -17 -42 -41 -57 -91 -57
-51 0 -95 44 -95 95 0 75 95 123 157 80z"/>
<path d="M612 1843 c3 -15 14 -18 63 -18 49 0 60 3 63 18 3 15 -5 17 -63 17
-58 0 -66 -2 -63 -17z"/>
<path d="M1112 1843 c2 -14 15 -19 58 -21 30 -1 61 2 69 7 27 18 -1 31 -65 31
-57 0 -65 -2 -62 -17z"/>
<path d="M737 1682 c-38 -39 -45 -56 -26 -68 14 -8 89 65 89 88 0 28 -23 21
-63 -20z"/>
<path d="M1054 1709 c-6 -11 72 -99 88 -99 5 0 11 7 15 16 4 10 -8 30 -33 55
-39 40 -58 47 -70 28z"/>
<path d="M910 1596 c0 -66 6 -81 29 -67 8 5 11 27 9 67 -2 47 -7 59 -20 62
-16 3 -18 -5 -18 -62z"/>
<path d="M322 1513 c2 -61 6 -78 18 -78 12 0 15 15 15 75 0 64 -3 75 -18 78
-16 3 -18 -4 -15 -75z"/>
</g>
</svg>
