<?xml version="1.0" standalone="no"?>
<!DOCTYPE svg PUBLIC "-//W3C//DTD SVG 20010904//EN"
 "http://www.w3.org/TR/2001/REC-SVG-20010904/DTD/svg10.dtd">
<svg version="1.0" xmlns="http://www.w3.org/2000/svg"
 width="240.000000pt" height="240.000000pt" viewBox="0 0 240.000000 240.000000"
 preserveAspectRatio="xMidYMid meet">

<g transform="translate(0.000000,240.000000) scale(0.100000,-0.100000)"
fill="#000000" stroke="none">
<path d="M1065 2394 c-92 -14 -198 -39 -260 -61 -397 -143 -693 -480 -781
-893 -25 -119 -26 -363 0 -480 102 -472 465 -835 936 -936 114 -25 373 -25
478 -1 255 59 466 177 634 356 80 85 178 224 178 253 0 38 -29 15 -80 -64
-113 -175 -324 -352 -516 -432 -86 -36 -219 -74 -227 -65 -5 5 -37 457 -37
512 l0 37 123 0 c116 0 125 1 145 23 31 33 30 91 -3 121 l-25 23 20 44 c13 29
20 66 20 108 0 35 9 95 21 133 l20 70 -51 59 c-49 56 -52 62 -48 107 l3 47
-71 3 -70 3 -10 42 -9 42 -80 5 -80 5 -3 91 c-3 88 -2 92 23 108 31 20 34 65
6 90 -11 10 -23 35 -26 57 -4 24 -12 39 -21 39 -11 0 -14 21 -14 105 0 98 -1
105 -20 105 -17 0 -19 8 -22 83 -2 65 -6 82 -18 82 -12 0 -16 -17 -18 -82 -3
-75 -5 -83 -22 -83 -19 0 -20 -7 -20 -105 0 -84 -3 -105 -14 -105 -9 0 -17
-15 -21 -39 -3 -22 -15 -47 -26 -57 -28 -25 -25 -70 6 -90 25 -16 26 -20 23
-108 l-3 -91 -80 -5 -80 -5 -9 -42 -10 -42 -70 -3 -71 -3 3 -47 c4 -45 1 -51
-48 -107 l-51 -59 20 -70 c12 -38 21 -98 21 -133 0 -42 7 -79 20 -108 l20 -44
-25 -23 c-34 -31 -35 -91 -2 -122 21 -20 34 -22 151 -22 l128 0 -7 -62 c-7
-72 -35 -455 -35 -479 0 -16 -7 -15 -76 2 -359 93 -677 387 -797 739 -74 216
-83 430 -30 658 l17 72 338 0 c379 0 387 1 414 67 29 67 -21 143 -95 143 -29
1 -40 7 -56 33 -44 69 -126 95 -200 63 -28 -12 -32 -11 -67 20 -20 18 -55 38
-77 45 -23 7 -41 15 -41 19 0 18 178 176 252 224 104 67 163 96 258 129 425
145 880 40 1196 -277 209 -209 320 -458 340 -763 l7 -100 -56 -31 c-30 -17
-58 -36 -61 -41 -4 -5 -30 -7 -60 -4 -30 3 -69 0 -89 -6 -34 -12 -107 -80
-107 -101 0 -6 -14 -10 -30 -10 -103 0 -159 -112 -91 -181 l30 -29 208 2 207
3 19 50 c43 116 60 224 61 390 1 173 -13 266 -61 400 -141 391 -471 685 -873
776 -83 19 -329 33 -395 23z m155 -404 c0 -13 -7 -20 -20 -20 -13 0 -20 7 -20
20 0 13 7 20 20 20 13 0 20 -7 20 -20z m0 -105 c0 -38 -3 -45 -20 -45 -17 0
-20 7 -20 45 0 38 3 45 20 45 17 0 20 -7 20 -45z m-867 -9 c18 -7 49 -33 69
-57 l37 -44 26 25 c40 37 113 35 154 -4 16 -15 32 -39 35 -52 6 -21 12 -24 49
-24 58 0 87 -22 87 -65 0 -65 -6 -66 -373 -63 l-326 3 32 75 c18 41 54 108 80
148 51 79 66 85 130 58z m900 -90 c8 -21 -2 -26 -53 -26 -51 0 -61 5 -53 26 3
9 21 14 53 14 32 0 50 -5 53 -14z m42 -86 c0 -12 -18 -16 -89 -18 -87 -3 -115
5 -101 27 4 8 38 11 98 9 74 -2 92 -6 92 -18z m-45 -155 l0 -95 -50 0 -50 0 0
95 0 95 50 0 50 0 0 -95z m174 -151 c3 -9 6 -20 6 -25 0 -5 -97 -9 -230 -9
-133 0 -230 4 -230 9 0 40 4 41 230 41 189 0 219 -2 224 -16z m144 -91 c-3
-17 -29 -18 -368 -18 -339 0 -365 1 -368 18 -3 16 20 17 368 17 348 0 371 -1
368 -17z m40 -103 l33 -40 -441 0 -441 0 33 40 33 40 375 0 375 0 33 -40z m45
-86 c3 -3 0 -22 -7 -42 l-13 -37 -433 0 -433 0 -13 37 c-7 20 -10 39 -7 42 8
8 898 8 906 0z m682 -136 c-9 -45 -24 -104 -33 -132 l-17 -51 -179 -3 c-200
-3 -226 4 -226 57 0 39 31 63 87 69 44 4 50 8 65 41 31 66 112 96 188 70 29
-11 34 -10 49 10 9 12 30 31 46 41 30 20 30 20 33 -1 2 -11 -4 -57 -13 -101z
m-705 -28 l0 -40 -430 0 -430 0 0 40 0 40 430 0 430 0 0 -40z m-752 -122 c-3
-38 -6 -43 -30 -46 -21 -3 -30 3 -42 27 -27 51 -22 61 30 61 l45 0 -3 -42z
m150 0 l-3 -43 -50 0 -50 0 -3 43 -3 42 56 0 56 0 -3 -42z m150 0 l-3 -43 -50
0 -50 0 -3 43 -3 42 56 0 56 0 -3 -42z m150 0 l-3 -43 -50 0 -50 0 -3 43 -3
42 56 0 56 0 -3 -42z m150 0 l-3 -43 -50 0 -50 0 -3 43 -3 42 56 0 56 0 -3
-42z m132 16 c-21 -55 -31 -65 -58 -62 -24 3 -27 8 -30 46 l-3 42 50 0 c50 0
50 0 41 -26z m28 -138 c2 -16 -2 -32 -10 -37 -22 -14 -842 -11 -856 3 -13 13
-16 50 -5 61 3 4 200 6 437 5 l431 -3 3 -29z m-504 -103 c-1 -7 -2 -134 -2
-283 l-2 -270 -49 0 c-28 0 -52 4 -56 9 -3 5 4 128 15 273 11 145 20 269 20
276 0 9 12 12 38 10 22 -2 37 -8 36 -15z m90 -60 c3 -42 6 -172 6 -290 l0
-213 -30 0 -30 0 0 208 c0 279 8 372 30 372 14 0 18 -14 24 -77z m120 45 c14
-88 37 -521 28 -530 -5 -5 -29 -8 -53 -6 l-44 3 -5 275 c-3 151 -4 278 -2 283
2 4 18 7 37 7 31 0 35 -3 39 -32z"/>
</g>
</svg>
