<?xml version="1.0" standalone="no"?>
<!DOCTYPE svg PUBLIC "-//W3C//DTD SVG 20010904//EN"
 "http://www.w3.org/TR/2001/REC-SVG-20010904/DTD/svg10.dtd">
<svg version="1.0" xmlns="http://www.w3.org/2000/svg"
 width="240.000000pt" height="240.000000pt" viewBox="0 0 240.000000 240.000000"
 preserveAspectRatio="xMidYMid meet">

<g transform="translate(0.000000,240.000000) scale(0.100000,-0.100000)"
fill="#000000" stroke="none">
<path d="M989 2364 c-533 -96 -924 -519 -981 -1060 -41 -396 140 -808 460
-1049 475 -357 1124 -323 1554 83 225 212 368 545 368 857 0 217 -76 470 -197
653 l-35 52 -89 0 -89 0 0 -85 0 -85 120 0 c106 0 120 -2 129 -19 6 -10 7 -21
4 -25 -3 -3 -62 -6 -130 -6 l-123 0 0 -550 0 -550 -60 0 -60 0 0 460 0 460
-665 0 -665 0 0 -460 0 -461 -57 3 -58 3 -3 548 -2 547 -125 0 c-69 0 -125 4
-125 9 0 38 10 41 131 41 l119 0 0 85 0 85 -60 0 c-33 0 -60 4 -60 9 0 5 47
53 103 107 156 149 313 237 522 295 112 30 363 38 488 15 218 -41 385 -124
581 -290 35 -29 50 -36 58 -28 15 15 -22 55 -123 131 -145 110 -339 193 -526
226 -105 18 -301 18 -404 -1z m-609 -549 l0 -45 -90 0 c-50 0 -90 2 -90 5 0 3
12 23 26 45 26 40 27 40 90 40 l64 0 0 -45z m1784 5 c14 -22 26 -42 26 -45 0
-3 -38 -5 -85 -5 l-85 0 0 45 0 45 59 0 c57 0 59 -1 85 -40z m-1789 -705 l0
-530 -42 -3 -43 -3 0 135 0 136 -90 0 c-79 0 -90 -2 -91 -17 -1 -27 -28 52
-45 132 -35 162 -28 361 19 530 l22 80 5 -55 c3 -30 8 -54 13 -52 4 1 12 2 17
2 7 0 10 22 8 58 -2 47 -6 57 -20 56 -21 -2 -21 -5 -7 35 l11 32 122 -3 121
-3 0 -530z m1727 448 c2 -70 6 -88 18 -88 12 0 16 18 18 88 l3 87 58 0 c57 0
59 -1 70 -30 8 -24 7 -30 -5 -30 -11 0 -14 -14 -14 -60 0 -47 3 -60 15 -60 11
0 15 12 15 46 0 67 15 46 41 -59 20 -78 23 -117 23 -262 0 -143 -4 -185 -23
-262 -12 -51 -27 -95 -32 -99 -5 -3 -9 0 -9 5 0 7 -33 11 -90 11 l-90 0 0
-135 0 -135 -40 0 -40 0 0 535 0 535 40 0 39 0 3 -87z m-282 -543 l0 -440
-249 0 -249 0 -4 101 -4 101 -37 34 c-50 46 -111 48 -159 5 -32 -29 -33 -31
-38 -133 l-5 -103 -252 -3 -253 -2 0 440 0 440 625 0 625 0 0 -440z m-1570
-326 c0 -105 -2 -115 -17 -112 -10 2 -32 30 -50 63 -25 45 -33 73 -33 113 l0
52 50 0 50 0 0 -116z m1001 97 c22 -17 24 -29 27 -116 l4 -96 -84 3 -83 3 -3
60 c-4 78 4 121 29 146 25 25 80 25 110 0z m989 -39 c0 -47 -6 -68 -33 -112
-17 -30 -40 -56 -50 -58 -15 -3 -17 7 -17 112 l0 116 50 0 50 0 0 -58z m-102
-222 c-7 -20 -123 -153 -159 -181 -25 -20 -48 -29 -73 -29 -36 0 -51 -22 -23
-33 29 -13 -140 -114 -277 -165 -158 -60 -256 -75 -446 -69 -179 6 -255 21
-398 77 -71 29 -200 99 -247 136 -19 14 -19 16 -2 25 26 15 11 29 -32 29 -36
0 -46 7 -125 90 -47 50 -90 100 -96 110 -11 20 -2 20 935 20 595 0 945 -4 943
-10z"/>
<path d="M272 1528 c2 -35 8 -63 13 -63 6 0 11 28 13 63 2 51 0 62 -13 62 -13
0 -15 -11 -13 -62z"/>
<path d="M110 1250 c0 -53 2 -61 18 -58 25 5 25 111 0 116 -16 3 -18 -5 -18
-58z"/>
<path d="M270 1250 c0 -47 3 -60 15 -60 12 0 15 13 15 60 0 47 -3 60 -15 60
-12 0 -15 -13 -15 -60z"/>
<path d="M110 970 c0 -53 2 -61 18 -58 14 3 17 14 17 58 0 44 -3 55 -17 58
-16 3 -18 -5 -18 -58z"/>
<path d="M270 970 c0 -47 3 -60 15 -60 12 0 15 13 15 60 0 47 -3 60 -15 60
-12 0 -15 -13 -15 -60z"/>
<path d="M2107 1374 c-4 -4 -7 -45 -7 -91 0 -77 2 -83 20 -83 20 0 21 5 18 87
-3 79 -12 106 -31 87z"/>
<path d="M2250 1290 c0 -73 3 -90 15 -90 12 0 15 17 15 90 0 73 -3 90 -15 90
-12 0 -15 -17 -15 -90z"/>
<path d="M2102 1013 c2 -70 6 -88 18 -88 12 0 16 18 18 88 3 82 2 87 -18 87
-20 0 -21 -5 -18 -87z"/>
<path d="M2250 1010 c0 -73 3 -90 15 -90 12 0 15 17 15 90 0 73 -3 90 -15 90
-12 0 -15 -17 -15 -90z"/>
<path d="M682 1313 c2 -53 6 -68 18 -68 12 0 16 15 18 68 3 62 1 67 -18 67
-19 0 -21 -5 -18 -67z"/>
<path d="M924 1366 c-3 -7 -4 -38 -2 -67 2 -40 7 -54 18 -54 12 0 16 15 18 68
2 56 0 67 -13 67 -9 0 -18 -6 -21 -14z"/>
<path d="M1172 1313 c2 -42 8 -68 16 -71 9 -3 12 15 12 67 0 57 -3 71 -15 71
-13 0 -15 -12 -13 -67z"/>
<path d="M1412 1313 c2 -52 6 -68 18 -68 12 0 15 14 15 65 0 54 -3 65 -18 68
-16 3 -18 -3 -15 -65z"/>
<path d="M1652 1313 c2 -53 6 -68 18 -68 12 0 16 15 18 68 3 62 1 67 -18 67
-19 0 -21 -5 -18 -67z"/>
<path d="M931 1146 c-8 -9 -11 -47 -9 -112 2 -80 6 -99 18 -99 12 0 16 20 18
104 3 105 -5 134 -27 107z"/>
<path d="M1176 1153 c-3 -3 -6 -55 -6 -115 0 -89 3 -108 15 -108 12 0 15 19
15 109 0 100 -6 131 -24 114z"/>
<path d="M682 1043 c2 -88 6 -108 18 -108 12 0 16 20 18 108 3 102 2 107 -18
107 -20 0 -21 -5 -18 -107z"/>
<path d="M1412 1043 c2 -88 6 -108 18 -108 12 0 15 18 15 105 0 93 -2 105 -18
108 -16 3 -17 -5 -15 -105z"/>
<path d="M1652 1043 c2 -88 6 -108 18 -108 12 0 16 20 18 108 3 102 2 107 -18
107 -20 0 -21 -5 -18 -107z"/>
<path d="M682 753 c2 -53 6 -68 18 -68 12 0 16 15 18 68 3 62 1 67 -18 67 -19
0 -21 -5 -18 -67z"/>
<path d="M924 806 c-3 -7 -4 -38 -2 -67 2 -40 7 -54 18 -54 12 0 16 15 18 68
2 56 0 67 -13 67 -9 0 -18 -6 -21 -14z"/>
<path d="M1412 753 c2 -52 6 -68 18 -68 12 0 15 14 15 65 0 54 -3 65 -18 68
-16 3 -18 -3 -15 -65z"/>
<path d="M1652 753 c2 -53 6 -68 18 -68 12 0 16 15 18 68 3 62 1 67 -18 67
-19 0 -21 -5 -18 -67z"/>
<path d="M640 305 c0 -12 17 -15 95 -15 78 0 95 3 95 15 0 12 -17 15 -95 15
-78 0 -95 -3 -95 -15z"/>
<path d="M950 305 c0 -12 17 -15 95 -15 78 0 95 3 95 15 0 12 -17 15 -95 15
-78 0 -95 -3 -95 -15z"/>
<path d="M1257 314 c-17 -17 11 -24 94 -24 72 0 89 3 89 15 0 12 -16 15 -88
15 -49 0 -92 -3 -95 -6z"/>
<path d="M1560 305 c0 -12 17 -15 95 -15 78 0 95 3 95 15 0 12 -17 15 -95 15
-78 0 -95 -3 -95 -15z"/>
<path d="M933 2124 c-18 -9 -33 -20 -33 -25 0 -4 -22 -5 -49 -2 -37 4 -56 1
-79 -12 -38 -23 -60 -61 -44 -77 8 -8 19 -3 41 20 31 34 62 40 105 21 23 -11
28 -8 56 21 31 33 34 34 113 14 42 -10 36 23 -8 42 -44 18 -62 17 -102 -2z"/>
<path d="M1091 1969 c-14 -5 -31 -15 -39 -22 -8 -6 -41 -12 -74 -12 -55 0 -62
-3 -89 -33 -16 -18 -29 -37 -29 -42 0 -17 33 -25 38 -11 15 45 79 65 122 39
17 -11 23 -9 45 14 33 36 66 43 103 24 16 -8 32 -12 36 -9 15 15 3 35 -29 49
-39 16 -50 17 -84 3z"/>
<path d="M534 1676 c-3 -7 -4 -38 -2 -67 l3 -54 663 -3 663 -2 -3 67 -3 68
-658 3 c-551 2 -658 0 -663 -12z m1286 -56 l0 -30 -625 0 -625 0 0 30 0 30
625 0 625 0 0 -30z"/>
</g>
</svg>
