<?xml version="1.0" standalone="no"?>
<!DOCTYPE svg PUBLIC "-//W3C//DTD SVG 20010904//EN"
 "http://www.w3.org/TR/2001/REC-SVG-20010904/DTD/svg10.dtd">
<svg version="1.0" xmlns="http://www.w3.org/2000/svg"
 width="240.000000pt" height="240.000000pt" viewBox="0 0 240.000000 240.000000"
 preserveAspectRatio="xMidYMid meet">

<g transform="translate(0.000000,240.000000) scale(0.100000,-0.100000)"
fill="#000000" stroke="none">
<path d="M1055 2389 c-398 -54 -727 -281 -913 -629 -65 -121 -132 -337 -132
-425 l0 -25 281 0 281 0 29 29 c23 24 29 38 29 74 0 72 -43 109 -140 119 -17
2 -26 10 -28 26 -2 12 -20 40 -40 61 -44 46 -105 67 -155 53 -29 -8 -37 -5
-67 20 l-35 29 28 52 c44 84 121 179 221 274 343 323 844 402 1278 201 48 -22
88 -43 88 -46 0 -2 -14 -21 -30 -42 -96 -121 -115 -281 -48 -414 28 -56 106
-130 166 -157 49 -22 52 -26 52 -61 0 -33 -3 -37 -27 -40 l-28 -3 0 -125 0
-125 163 -3 163 -2 -3 127 c-3 124 -4 128 -25 131 -19 3 -23 10 -23 42 0 33 4
39 30 49 17 5 44 19 59 31 16 11 34 20 39 20 12 0 44 -91 67 -190 23 -99 30
-261 15 -378 l-12 -102 -47 -21 c-25 -11 -57 -31 -71 -44 -22 -21 -30 -23 -65
-15 -82 18 -179 -26 -212 -96 -15 -31 -20 -34 -61 -34 -37 0 -50 -6 -78 -34
-40 -40 -45 -83 -14 -133 26 -43 67 -53 223 -53 127 0 128 0 116 -21 -20 -38
-170 -188 -238 -238 -80 -60 -193 -121 -283 -155 l-68 -26 0 164 0 165 28 3
27 3 3 379 c1 271 -1 383 -9 392 -6 8 -22 14 -35 14 l-24 0 0 204 c0 112 -3
211 -6 220 -3 9 -12 16 -20 16 -11 0 -14 -26 -14 -132 0 -82 -4 -128 -9 -123
-6 6 -38 60 -73 120 l-63 110 -5 225 c-4 191 -7 225 -20 225 -12 0 -16 -16
-18 -75 l-3 -75 -39 68 c-37 63 -40 74 -40 143 0 67 -2 74 -20 74 -18 0 -20
-7 -20 -74 0 -66 -4 -80 -37 -141 l-38 -68 -5 71 c-5 73 -11 89 -29 77 -7 -4
-11 -80 -11 -221 l0 -215 -66 -120 c-37 -65 -70 -122 -75 -125 -5 -3 -9 52 -9
126 0 120 -2 131 -17 128 -16 -3 -18 -23 -21 -221 l-2 -217 -29 0 c-17 0 -31
-6 -35 -16 -8 -20 -8 -738 0 -758 3 -9 17 -16 30 -16 22 0 24 -4 24 -54 0 -40
4 -55 16 -60 9 -3 153 -6 320 -6 l304 0 0 -110 0 -109 -37 -10 c-21 -6 -41
-11 -45 -11 -4 0 -8 35 -10 78 -2 60 -6 77 -18 77 -12 0 -16 -17 -18 -81 l-3
-82 -37 -5 c-20 -2 -40 -2 -44 0 -5 2 -8 42 -8 89 0 76 -2 85 -17 82 -15 -3
-18 -17 -21 -91 l-3 -87 -39 0 -40 0 0 74 c0 83 -6 106 -26 106 -11 0 -14 -19
-14 -83 0 -46 -2 -86 -4 -88 -3 -3 -23 -3 -45 -1 l-40 4 -3 82 c-2 64 -6 81
-18 81 -12 0 -16 -17 -18 -77 -2 -43 -6 -78 -10 -78 -4 0 -24 5 -44 11 l-38
10 0 90 c0 81 -2 90 -17 87 -15 -3 -18 -16 -21 -85 l-3 -82 -54 19 c-81 28
-222 104 -295 159 -82 62 -214 198 -267 276 -114 169 -182 365 -201 580 -5 61
-10 80 -22 80 -33 0 -4 -247 47 -395 135 -397 473 -692 902 -786 113 -25 347
-24 471 3 264 57 494 192 666 392 389 451 388 1114 -3 1567 -167 192 -396 328
-652 385 -102 22 -298 32 -396 18z m799 -232 c16 -12 17 -18 6 -53 -6 -21 -15
-79 -19 -128 -7 -75 -12 -93 -31 -108 -31 -25 -62 -23 -90 7 -20 21 -22 31
-17 79 7 67 34 130 77 179 35 40 47 44 74 24z m111 -88 c45 -41 45 -42 45
-107 0 -54 -4 -70 -22 -89 -28 -30 -63 -29 -95 3 -23 23 -25 30 -19 82 9 82
27 152 37 152 5 0 30 -19 54 -41z m-718 -134 l42 -75 -91 0 -90 0 20 33 c10
17 30 51 42 75 13 23 26 42 29 42 3 0 25 -34 48 -75z m871 -29 c33 -46 33 -56
-5 -56 -38 0 -63 34 -63 87 0 44 1 45 18 30 10 -10 33 -37 50 -61z m-224 -252
c14 -24 22 -44 20 -44 -3 0 -22 9 -42 19 -59 30 -152 140 -152 180 0 5 15 8
33 5 17 -3 43 1 57 9 25 13 25 13 42 -57 10 -38 29 -88 42 -112z m82 165 c15
6 28 10 31 8 2 -3 2 -57 1 -122 l-3 -118 -31 26 c-33 28 -78 118 -89 179 l-7
37 36 -11 c27 -9 42 -8 62 1z m126 -6 c10 -3 31 0 48 5 36 13 36 12 10 -69
-21 -70 -59 -133 -90 -149 -19 -10 -20 -7 -20 111 0 111 1 121 18 114 9 -4 25
-9 34 -12z m-962 -78 c0 -78 -2 -85 -20 -85 -18 0 -20 7 -20 85 0 78 2 85 20
85 18 0 20 -7 20 -85z m80 0 c0 -78 -2 -85 -20 -85 -18 0 -20 7 -20 85 0 78 2
85 20 85 18 0 20 -7 20 -85z m80 0 c0 -78 -2 -85 -20 -85 -18 0 -20 7 -20 85
0 78 2 85 20 85 18 0 20 -7 20 -85z m933 -10 c9 -20 17 -40 17 -46 0 -9 -87
-69 -101 -69 -4 0 6 26 22 58 16 31 29 65 29 75 0 28 15 20 33 -18z m-2047
-76 c31 -30 34 -31 69 -19 77 25 159 -23 171 -101 l7 -39 48 0 c62 0 95 -15
110 -52 10 -25 9 -33 -8 -56 l-20 -27 -257 -3 -257 -2 6 37 c16 96 79 293 93
293 3 0 20 -14 38 -31z m1162 -104 c18 -33 54 -97 79 -142 l45 -83 -51 0 -51
0 0 33 c0 19 -3 37 -7 40 -12 13 -33 -15 -33 -44 0 -26 -4 -29 -30 -29 -27 0
-30 3 -30 33 0 38 -6 48 -26 40 -8 -3 -14 -19 -14 -39 0 -31 -3 -34 -29 -34
-27 0 -30 3 -33 38 -2 25 -8 37 -18 37 -10 0 -16 -12 -18 -37 -3 -35 -6 -38
-33 -38 -25 0 -29 4 -29 29 0 29 -21 57 -33 44 -4 -3 -7 -21 -7 -40 l0 -33
-51 0 -51 0 53 98 c29 53 65 118 79 145 l25 47 115 -2 114 -3 34 -60z m752
-22 l0 -33 -70 0 -70 0 0 33 0 32 70 0 70 0 0 -32z m60 -93 c0 -19 -7 -20
-130 -20 -123 0 -130 1 -130 20 0 19 7 20 130 20 123 0 130 -1 130 -20z m0
-110 l0 -50 -130 0 -130 0 0 50 0 50 130 0 130 0 0 -50z m-670 -75 l0 -35
-290 0 -290 0 0 35 0 35 290 0 290 0 0 -35z m68 -432 l-3 -358 -355 0 -355 0
-3 358 -2 357 360 0 360 0 -2 -357z m762 88 c0 -37 -91 -245 -132 -303 l-19
-28 -153 0 c-140 0 -156 2 -180 21 -32 25 -35 70 -6 99 15 15 33 20 70 20 47
0 51 2 63 33 34 79 129 123 201 93 35 -15 38 -14 58 7 29 29 80 67 90 67 4 0
8 -4 8 -9z m-822 -523 l3 -38 -300 0 -301 0 0 40 0 40 298 -2 297 -3 3 -37z"/>
<path d="M890 854 c0 -247 1 -265 18 -262 16 3 17 24 20 246 l2 242 273 0
c149 0 278 4 286 9 41 26 -7 31 -300 31 l-299 0 0 -266z"/>
<path d="M1460 786 l0 -246 -269 0 c-148 0 -276 -3 -285 -6 -9 -3 -16 -12 -16
-20 0 -12 48 -14 303 -12 l302 3 0 260 c0 239 -1 260 -17 263 -17 3 -18 -14
-18 -242z"/>
<path d="M1136 1008 c-55 -15 -119 -82 -136 -141 -30 -109 36 -226 143 -257
105 -29 213 28 252 134 16 42 17 56 7 104 -26 124 -143 194 -266 160z m127
-42 c44 -18 95 -78 103 -121 11 -60 -4 -106 -50 -151 -72 -72 -160 -72 -232 0
-67 67 -72 154 -11 223 53 60 122 78 190 49z"/>
<path d="M1177 903 c-4 -3 -7 -26 -7 -50 0 -39 4 -46 42 -73 22 -16 45 -30 50
-30 20 0 5 37 -22 55 -25 17 -30 26 -30 63 0 40 -14 55 -33 35z"/>
</g>
</svg>
