<?xml version="1.0" standalone="no"?>
<!DOCTYPE svg PUBLIC "-//W3C//DTD SVG 20010904//EN"
 "http://www.w3.org/TR/2001/REC-SVG-20010904/DTD/svg10.dtd">
<svg version="1.0" xmlns="http://www.w3.org/2000/svg"
 width="240.000000pt" height="240.000000pt" viewBox="0 0 240.000000 240.000000"
 preserveAspectRatio="xMidYMid meet">

<g transform="translate(0.000000,240.000000) scale(0.100000,-0.100000)"
fill="#000000" stroke="none">
<path d="M1065 2394 c-160 -25 -279 -61 -400 -122 -387 -194 -651 -599 -658
-1010 -2 -85 0 -97 15 -100 15 -3 18 4 18 40 0 69 19 206 41 291 98 388 425
719 811 822 328 88 659 36 943 -149 159 -103 320 -285 407 -461 80 -160 132
-428 114 -579 l-7 -56 -229 0 -228 0 -6 33 c-14 76 -108 146 -195 147 -86 0
-179 -71 -196 -151 l-7 -29 -334 0 -334 0 -2 202 c-3 195 -4 203 -23 203 -20
0 -20 -8 -23 -472 l-2 -473 -30 0 -30 0 0 500 0 500 242 2 c159 2 243 7 245
14 5 15 -66 83 -112 107 -25 13 -67 22 -113 25 l-74 5 87 87 c50 50 85 93 81
99 -9 14 -89 14 -136 1 -59 -16 -128 -67 -159 -115 l-29 -46 -22 35 c-50 82
-148 136 -247 136 -72 0 -67 -21 28 -116 l84 -84 -56 0 c-30 0 -77 -7 -102
-16 -60 -20 -143 -93 -134 -117 6 -15 27 -17 192 -17 l185 0 0 -230 0 -230
-325 0 c-273 0 -327 -2 -331 -14 -8 -21 24 -168 53 -251 143 -399 473 -686
895 -781 107 -25 366 -25 478 0 472 103 835 466 936 936 25 119 26 363 0 480
-101 465 -457 827 -916 931 -83 19 -329 33 -395 23z m-474 -585 c50 -25 104
-91 119 -145 7 -24 11 -47 8 -49 -2 -2 -56 48 -118 111 -109 110 -113 115 -80
109 19 -4 51 -16 71 -26z m399 23 c0 -12 -219 -227 -225 -221 -3 3 2 29 11 58
20 69 84 134 151 155 57 18 63 18 63 8z m-357 -221 c26 -13 47 -27 47 -32 0
-5 -71 -9 -162 -9 l-163 1 30 24 c60 49 165 56 248 16z m440 0 c26 -12 47 -27
47 -32 0 -5 -71 -9 -162 -9 l-163 1 29 23 c62 51 165 58 249 17z m706 -428
c30 -23 71 -80 71 -99 0 -11 -32 -14 -161 -14 l-160 0 7 23 c30 99 164 148
243 90z m-1111 -205 l3 -47 -88 -3 c-70 -2 -88 -6 -88 -18 0 -12 18 -16 88
-18 l87 -3 0 -44 0 -45 -170 0 c-163 0 -170 -1 -170 -20 0 -19 7 -20 170 -20
l170 0 0 -45 0 -44 -77 -3 c-64 -2 -78 -6 -81 -20 -3 -15 7 -18 75 -20 l78 -3
3 -47 3 -48 -126 0 c-115 0 -126 -2 -123 -17 3 -17 54 -18 848 -23 l845 -5
-96 -98 -96 -97 -182 0 c-168 0 -182 -1 -179 -17 3 -16 20 -19 148 -23 l145
-5 -72 -43 c-140 -85 -293 -134 -478 -154 -225 -24 -491 35 -690 155 l-70 42
145 5 c128 4 145 7 148 23 3 16 -11 17 -179 17 l-182 0 -96 97 -96 98 40 5
c27 3 41 10 43 23 3 15 -5 17 -55 17 -58 0 -58 0 -85 44 -16 24 -28 46 -28 50
0 3 59 6 131 6 119 0 130 2 127 18 -3 15 -19 17 -146 20 l-142 3 -20 39 c-11
22 -20 41 -20 44 0 3 33 6 73 8 56 2 72 6 72 18 0 12 -17 16 -82 18 -81 3 -81
3 -92 34 -21 59 -26 57 161 60 155 3 173 5 176 21 3 16 -11 17 -178 17 l-180
0 -10 26 c-6 14 -10 36 -10 50 l0 24 303 -2 302 -3 3 -47z m1672 28 c0 -14 -4
-36 -10 -50 l-10 -26 -133 0 c-74 0 -136 -3 -140 -6 -3 -3 -3 -12 0 -20 4 -11
33 -14 134 -14 140 0 139 1 118 -59 -10 -30 -13 -31 -65 -31 -47 0 -54 -3 -54
-19 0 -16 8 -20 45 -23 l44 -3 -19 -42 -19 -43 -98 0 c-98 0 -131 -8 -119 -29
5 -7 42 -11 97 -11 49 0 89 -4 89 -8 0 -5 -14 -28 -30 -50 l-30 -42 -660 0
-660 0 0 115 0 114 63 3 c47 2 62 7 62 18 0 11 -15 16 -62 18 l-63 3 0 44 0
45 172 2 c155 3 173 5 176 21 3 16 -10 17 -172 17 l-176 0 0 50 0 50 760 0
760 0 0 -24z"/>
<path d="M992 273 c3 -16 21 -18 208 -18 187 0 205 2 208 18 3 16 -12 17 -208
17 -196 0 -211 -1 -208 -17z"/>
<path d="M1222 913 c3 -15 14 -18 68 -18 54 0 65 3 68 18 3 15 -5 17 -68 17
-63 0 -71 -2 -68 -17z"/>
<path d="M1415 920 c-16 -27 16 -30 284 -30 221 0 281 3 290 13 6 8 8 17 4 20
-11 11 -571 8 -578 -3z"/>
<path d="M1005 790 c-16 -26 15 -30 251 -30 237 0 244 1 244 20 0 19 -7 20
-244 20 -153 0 -247 -4 -251 -10z"/>
<path d="M1555 790 c-15 -24 12 -30 121 -30 107 0 114 1 114 20 0 19 -7 20
-114 20 -66 0 -117 -4 -121 -10z"/>
<path d="M1845 789 c-15 -24 16 -30 146 -27 111 3 134 6 134 18 0 12 -23 15
-137 18 -92 2 -139 -1 -143 -9z"/>
<path d="M871 661 c-34 -22 4 -31 125 -31 114 0 125 2 122 18 -3 15 -18 17
-118 20 -63 1 -121 -2 -129 -7z"/>
<path d="M1181 661 c-38 -24 6 -31 205 -31 190 0 205 1 202 18 -3 15 -22 17
-198 19 -107 2 -201 -1 -209 -6z"/>
<path d="M1647 664 c-4 -4 -7 -13 -7 -21 0 -10 33 -13 161 -13 147 0 160 1
157 18 -3 15 -20 17 -154 20 -82 1 -153 -1 -157 -4z"/>
<path d="M1573 1980 c-18 -11 -33 -24 -33 -30 0 -5 -18 -10 -40 -10 -23 0 -54
-7 -70 -15 -33 -17 -65 -69 -56 -91 9 -23 23 -16 44 21 24 40 61 53 100 35 23
-10 28 -9 37 6 5 10 20 29 33 42 23 24 50 26 94 7 12 -5 20 -2 25 10 16 43
-77 60 -134 25z"/>
<path d="M1792 1864 c-18 -9 -37 -26 -43 -36 -8 -15 -17 -18 -39 -13 -50 11
-130 -49 -130 -96 0 -29 28 -22 45 11 17 34 49 45 100 36 31 -6 36 -4 47 20
17 36 62 55 101 42 37 -13 59 4 36 27 -24 24 -79 28 -117 9z"/>
<path d="M1675 1487 c-3 -7 -5 -49 -3 -93 2 -62 6 -79 18 -79 12 0 15 17 15
89 0 63 -4 91 -12 93 -7 3 -15 -2 -18 -10z"/>
<path d="M1457 1434 c-7 -7 21 -65 59 -126 16 -25 29 -35 39 -32 21 9 20 14
-26 93 -37 65 -55 81 -72 65z"/>
<path d="M1853 1368 c-31 -54 -39 -76 -31 -85 8 -10 14 -10 24 -2 22 18 86
138 79 149 -14 23 -33 6 -72 -62z"/>
<path d="M1302 1263 c3 -18 122 -93 145 -93 7 0 13 8 13 18 0 11 -24 31 -66
55 -73 41 -97 46 -92 20z"/>
<path d="M1991 1242 c-66 -38 -83 -58 -58 -67 18 -8 159 74 154 89 -7 21 -32
16 -96 -22z"/>
</g>
</svg>
