<?xml version="1.0" standalone="no"?>
<!DOCTYPE svg PUBLIC "-//W3C//DTD SVG 20010904//EN"
 "http://www.w3.org/TR/2001/REC-SVG-20010904/DTD/svg10.dtd">
<svg version="1.0" xmlns="http://www.w3.org/2000/svg"
 width="240.000000pt" height="240.000000pt" viewBox="0 0 240.000000 240.000000"
 preserveAspectRatio="xMidYMid meet">

<g transform="translate(0.000000,240.000000) scale(0.100000,-0.100000)"
fill="#000000" stroke="none">
<path d="M1065 2394 c-169 -26 -282 -62 -418 -132 -311 -159 -542 -459 -618
-802 -10 -47 -19 -100 -19 -117 l0 -33 279 0 c264 0 280 1 304 20 83 65 39
187 -71 198 -45 4 -50 7 -68 45 -10 23 -36 55 -57 72 -35 27 -46 30 -106 30
-54 0 -72 4 -96 23 l-29 23 24 47 c131 247 418 471 701 547 201 54 402 55 598
5 81 -21 224 -77 267 -105 l24 -15 -37 -48 c-64 -83 -78 -125 -78 -232 0 -88
3 -101 33 -162 38 -77 108 -146 177 -174 42 -18 45 -22 45 -56 0 -33 -3 -37
-27 -40 l-28 -3 0 -125 0 -125 165 0 165 0 3 105 c4 131 -1 150 -33 150 -22 0
-25 4 -25 39 0 32 4 40 23 45 13 3 40 17 61 31 20 14 41 25 45 25 11 0 46
-107 65 -200 23 -115 30 -244 17 -350 -15 -123 -17 -127 -50 -135 -16 -3 -46
-21 -68 -40 -37 -32 -41 -33 -84 -23 -80 18 -175 -27 -215 -103 -12 -25 -21
-29 -55 -29 -57 0 -109 -51 -109 -107 0 -90 49 -113 235 -113 l136 0 -12 -22
c-7 -13 -55 -66 -108 -119 -128 -129 -252 -209 -428 -278 l-53 -21 0 160 c0
150 1 160 19 160 40 0 41 12 39 411 l-3 384 -32 3 -33 3 -2 217 c-3 197 -5
217 -20 220 -16 3 -18 -8 -18 -129 0 -83 -4 -129 -9 -124 -6 6 -39 64 -75 129
l-66 119 0 219 c0 204 -1 219 -17 216 -15 -3 -19 -17 -23 -76 l-5 -73 -35 63
c-29 53 -36 76 -40 143 -4 62 -8 80 -20 80 -12 0 -16 -18 -20 -80 -4 -69 -10
-89 -42 -145 l-37 -65 -3 75 c-2 62 -6 75 -20 78 -17 3 -18 -12 -18 -215 l0
-218 -66 -120 c-36 -66 -70 -124 -75 -130 -5 -5 -9 43 -9 124 0 121 -2 132
-17 129 -16 -3 -18 -23 -21 -220 l-2 -217 -33 -3 -32 -3 -3 -384 c-2 -398 -1
-411 39 -411 15 0 18 -9 21 -52 l3 -53 318 -3 317 -2 0 -109 0 -109 -27 -6
c-16 -4 -36 -9 -45 -12 -15 -4 -18 5 -20 73 -2 61 -6 78 -18 78 -12 0 -16 -17
-18 -82 l-3 -83 -44 0 -45 0 0 86 c0 76 -2 85 -17 82 -15 -3 -18 -17 -21 -91
l-3 -87 -39 0 -39 0 -3 87 c-3 74 -6 88 -20 91 -16 3 -18 -6 -18 -82 l0 -86
-45 0 -44 0 -3 83 c-2 65 -6 82 -18 82 -12 0 -16 -17 -18 -78 -2 -68 -5 -77
-20 -73 -9 3 -29 8 -44 12 -28 6 -28 6 -28 96 0 80 -2 89 -17 86 -15 -3 -19
-17 -23 -85 l-5 -82 -83 34 c-163 66 -282 147 -398 267 -202 210 -304 437
-330 736 -5 60 -10 82 -21 82 -24 0 -27 -30 -15 -141 58 -516 440 -935 952
-1045 114 -25 373 -25 478 -1 482 110 837 465 938 937 25 119 26 363 0 480
-101 465 -457 827 -916 931 -83 19 -329 33 -395 23z m788 -238 c17 -13 17 -18
3 -68 -8 -29 -18 -86 -21 -127 -10 -106 -49 -137 -110 -89 -25 20 -27 25 -22
75 6 61 41 143 81 191 30 35 42 38 69 18z m111 -87 c46 -41 46 -41 46 -105 0
-56 -4 -68 -25 -89 -28 -29 -51 -31 -83 -9 -19 13 -22 24 -22 79 0 70 17 165
29 165 5 0 29 -18 55 -41z m-721 -128 c20 -38 37 -72 37 -75 0 -3 -36 -6 -80
-6 -44 0 -80 3 -80 6 0 10 75 144 80 144 3 0 22 -31 43 -69z m861 -18 c24 -31
43 -61 40 -65 -9 -14 -41 -8 -68 13 -21 17 -26 29 -26 65 0 24 2 44 4 44 2 0
25 -26 50 -57z m-254 -150 c7 -32 23 -79 36 -105 30 -60 30 -62 -6 -43 -46 24
-101 75 -132 124 -37 58 -36 68 6 63 19 -2 43 1 53 7 28 16 29 15 43 -46z
m160 -58 c0 -94 -3 -115 -14 -115 -31 0 -86 94 -105 179 l-9 41 37 -6 c20 -3
47 -1 61 5 14 5 26 10 28 10 1 1 2 -51 2 -114z m126 99 l42 5 -13 -49 c-20
-75 -53 -137 -86 -161 l-29 -20 0 121 c0 120 0 121 21 109 13 -6 40 -9 65 -5z
m-996 -79 c0 -78 -2 -85 -20 -85 -18 0 -20 7 -20 85 0 78 2 85 20 85 18 0 20
-7 20 -85z m80 0 c0 -78 -2 -85 -20 -85 -18 0 -20 7 -20 85 0 78 2 85 20 85
18 0 20 -7 20 -85z m80 0 c0 -78 -2 -85 -20 -85 -18 0 -20 7 -20 85 0 78 2 85
20 85 18 0 20 -7 20 -85z m950 -52 c0 -11 -90 -76 -97 -70 -2 2 7 28 21 58 13
30 27 63 31 74 6 18 9 16 25 -15 11 -19 19 -40 20 -47z m-2064 -34 c30 -29 33
-30 74 -19 75 20 155 -28 166 -101 l6 -37 59 -4 c38 -3 65 -11 79 -23 24 -22
26 -71 3 -97 -15 -17 -37 -18 -269 -18 l-253 0 5 33 c19 102 80 297 93 297 3
0 19 -14 37 -31z m1163 -109 c20 -36 56 -100 80 -142 l42 -78 -50 0 -50 0 -3
38 c-2 25 -8 37 -18 37 -10 0 -16 -12 -18 -37 -3 -34 -6 -38 -32 -38 -26 0
-29 4 -32 38 -2 25 -8 37 -18 37 -10 0 -16 -12 -18 -37 -3 -34 -6 -38 -32 -38
-26 0 -29 4 -32 38 -2 25 -8 37 -18 37 -10 0 -16 -12 -18 -37 -3 -34 -6 -38
-32 -38 -26 0 -29 4 -32 38 -4 49 -31 51 -38 2 -5 -34 -6 -35 -53 -38 -48 -3
-48 -3 -36 20 15 28 93 168 126 226 l24 43 111 -3 110 -3 37 -65z m751 -20 l0
-30 -70 0 -70 0 0 30 0 30 70 0 70 0 0 -30z m55 -90 c0 -12 -21 -16 -119 -18
-115 -3 -146 4 -131 27 4 8 47 11 128 9 101 -3 122 -6 122 -18z m5 -110 l0
-50 -130 0 -130 0 0 50 0 50 130 0 130 0 0 -50z m-672 -77 l3 -33 -290 0 -291
0 0 28 c0 16 3 32 7 35 4 4 133 6 287 5 l281 -3 3 -32z m70 -430 l2 -353 -360
0 -360 0 0 348 c0 192 3 352 7 355 4 4 164 6 357 5 l351 -3 3 -352z m741 26
c-27 -81 -68 -171 -103 -227 l-27 -43 -160 3 c-155 3 -161 4 -180 27 -45 55
-10 111 71 111 48 0 50 2 70 39 39 78 116 112 192 87 l43 -15 35 33 c33 32 72
58 77 52 2 -2 -6 -32 -18 -67z m-801 -461 l-3 -33 -295 0 -295 0 -3 33 -3 32
301 0 301 0 -3 -32z"/>
<path d="M890 854 c0 -247 1 -265 18 -262 16 3 17 24 20 245 l2 243 283 2
c259 3 282 4 285 21 3 16 -16 17 -302 17 l-306 0 0 -266z"/>
<path d="M1460 785 l0 -245 -282 -2 c-260 -3 -283 -4 -286 -20 -3 -17 16 -18
302 -18 l306 0 0 265 c0 258 -1 265 -20 265 -19 0 -20 -7 -20 -245z"/>
<path d="M1115 1001 c-139 -63 -167 -247 -52 -348 138 -121 348 -20 347 167
-1 140 -165 240 -295 181z m151 -40 c48 -22 80 -59 96 -112 34 -114 -89 -234
-204 -200 -87 26 -143 121 -120 200 16 53 48 90 96 112 52 23 80 23 132 0z"/>
<path d="M1170 861 c0 -45 3 -52 39 -80 21 -17 44 -31 50 -31 22 0 10 36 -19
55 -25 17 -30 26 -30 63 0 35 -3 42 -20 42 -17 0 -20 -7 -20 -49z"/>
</g>
</svg>
