<?xml version="1.0" standalone="no"?>
<!DOCTYPE svg PUBLIC "-//W3C//DTD SVG 20010904//EN"
 "http://www.w3.org/TR/2001/REC-SVG-20010904/DTD/svg10.dtd">
<svg version="1.0" xmlns="http://www.w3.org/2000/svg"
 width="240.000000pt" height="240.000000pt" viewBox="0 0 240.000000 240.000000"
 preserveAspectRatio="xMidYMid meet">

<g transform="translate(0.000000,240.000000) scale(0.100000,-0.100000)"
fill="#000000" stroke="none">
<path d="M1055 2389 c-500 -68 -892 -414 -1016 -899 -96 -371 1 -777 255
-1071 170 -198 394 -330 660 -391 128 -30 352 -30 486 -1 318 70 581 246 756
509 30 44 54 89 54 98 0 35 -29 12 -75 -60 -57 -90 -192 -235 -284 -304 -87
-66 -264 -153 -375 -185 -49 -14 -90 -24 -92 -23 -1 2 -9 111 -18 243 -9 132
-18 257 -21 278 l-5 37 124 0 c110 0 126 2 150 21 36 28 36 82 0 120 l-26 27
21 47 c14 31 21 68 21 109 0 33 9 92 20 130 l19 69 -52 60 c-49 57 -52 63 -49
109 l4 48 -70 0 -71 0 -8 43 -9 42 -82 3 -82 3 0 91 c0 84 2 92 25 114 14 13
25 33 25 45 0 11 -11 34 -25 51 -14 16 -25 41 -25 54 0 14 -7 27 -15 30 -12 5
-15 26 -15 106 0 91 -2 100 -20 105 -18 5 -20 14 -20 84 0 72 -2 79 -20 79
-18 0 -20 -7 -20 -79 0 -70 -2 -79 -20 -84 -18 -5 -20 -14 -20 -106 0 -83 -3
-101 -15 -101 -10 0 -15 -10 -15 -29 0 -17 -11 -42 -25 -59 -14 -17 -25 -40
-25 -51 0 -12 11 -32 25 -45 23 -22 25 -30 25 -114 l0 -91 -82 -3 -83 -3 -9
-42 -9 -43 -69 0 -70 0 4 -47 c3 -45 0 -52 -49 -110 l-52 -63 20 -67 c10 -37
19 -96 19 -130 0 -39 7 -78 20 -109 l21 -47 -26 -27 c-35 -37 -35 -91 1 -119
24 -19 40 -21 150 -21 68 0 124 -4 124 -8 0 -31 -41 -546 -44 -549 -1 -2 -43
8 -92 22 -382 111 -687 415 -798 796 -57 199 -61 390 -10 602 l16 67 333 0
c350 0 382 3 409 45 18 28 21 87 6 116 -14 24 -61 49 -97 49 -20 1 -34 9 -48
32 -43 68 -125 95 -196 65 -34 -14 -35 -13 -74 20 -22 18 -59 39 -83 45 l-44
11 69 70 c468 478 1214 474 1673 -9 201 -212 320 -503 320 -784 0 -64 -1 -68
-25 -74 -13 -3 -40 -20 -59 -37 -32 -28 -39 -29 -85 -23 -66 9 -129 -14 -171
-62 -16 -19 -30 -39 -30 -43 0 -5 -21 -12 -47 -16 -86 -13 -126 -82 -88 -154
24 -47 52 -52 264 -49 l194 3 19 55 c96 276 84 593 -32 862 -153 355 -466 613
-849 699 -102 22 -298 32 -396 18z m165 -399 c0 -13 -7 -20 -20 -20 -13 0 -20
7 -20 20 0 13 7 20 20 20 13 0 20 -7 20 -20z m0 -105 c0 -38 -3 -45 -20 -45
-17 0 -20 7 -20 45 0 38 3 45 20 45 17 0 20 -7 20 -45z m-867 -9 c18 -7 49
-32 68 -55 l34 -42 35 26 c63 46 138 28 178 -44 22 -38 26 -41 67 -41 35 0 48
-5 64 -26 27 -34 26 -50 -4 -79 l-24 -25 -331 0 c-181 0 -330 3 -330 8 0 17
100 211 129 250 34 46 57 52 114 28z m907 -96 c0 -18 -7 -20 -60 -20 -43 0
-60 4 -60 13 0 23 11 27 67 27 46 0 53 -2 53 -20z m38 -77 c-3 -16 -16 -18
-98 -18 -82 0 -95 2 -98 18 -3 15 7 17 98 17 91 0 101 -2 98 -17z m-48 -158
l0 -95 -50 0 -50 0 0 95 0 95 50 0 50 0 0 -95z m178 -162 l3 -23 -230 0 c-217
0 -231 1 -231 18 0 10 3 22 7 26 4 3 106 5 227 4 221 -3 221 -3 224 -25z m142
-83 c0 -20 -7 -20 -370 -20 -363 0 -370 0 -370 20 0 20 7 20 370 20 363 0 370
0 370 -20z m39 -100 l32 -40 -441 0 -441 0 32 40 32 40 377 0 377 0 32 -40z
m51 -86 c0 -4 -5 -24 -12 -45 l-11 -39 -437 0 -437 0 -11 39 c-7 21 -12 41
-12 45 0 3 207 6 460 6 253 0 460 -3 460 -6z m681 -121 c-6 -32 -21 -91 -32
-130 l-22 -73 -185 0 c-203 0 -222 5 -222 59 0 46 34 71 94 71 30 0 37 5 58
42 38 67 124 97 193 66 23 -10 28 -9 41 11 9 13 30 31 48 42 l31 19 3 -24 c2
-14 -2 -51 -7 -83z m-711 -43 l0 -40 -430 0 -430 0 0 40 0 40 430 0 430 0 0
-40z m-750 -125 c0 -43 -1 -45 -30 -45 -24 0 -33 7 -50 40 -11 21 -20 42 -20
45 0 3 23 5 50 5 l50 0 0 -45z m150 0 l0 -45 -55 0 -55 0 0 45 0 45 55 0 55 0
0 -45z m150 0 l0 -45 -55 0 -55 0 0 45 0 45 55 0 55 0 0 -45z m150 0 l0 -45
-55 0 -55 0 0 45 0 45 55 0 55 0 0 -45z m150 0 l0 -45 -55 0 -55 0 0 45 0 45
55 0 55 0 0 -45z m140 40 c0 -3 -9 -24 -20 -45 -17 -33 -26 -40 -50 -40 -29 0
-30 2 -30 45 l0 45 50 0 c28 0 50 -2 50 -5z m15 -165 l0 -35 -435 0 -435 0 -3
23 c-8 55 -27 52 440 50 l433 -3 0 -35z m-503 -362 c-2 -156 -7 -286 -11 -289
-3 -3 -27 -4 -53 -1 -41 3 -48 7 -48 26 0 11 9 138 20 281 11 143 20 261 20
263 0 1 17 2 38 2 l39 0 -5 -282z m91 267 c4 -8 7 -137 8 -287 l1 -273 -31 -3
-31 -3 0 268 c0 147 3 278 6 291 7 25 39 30 47 7z m139 -220 c9 -126 17 -253
17 -281 l1 -52 -47 -4 c-27 -3 -51 -2 -54 1 -4 3 -9 133 -11 289 l-4 283 40
-3 41 -3 17 -230z"/>
</g>
</svg>
