<?xml version="1.0" standalone="no"?>
<!DOCTYPE svg PUBLIC "-//W3C//DTD SVG 20010904//EN"
 "http://www.w3.org/TR/2001/REC-SVG-20010904/DTD/svg10.dtd">
<svg version="1.0" xmlns="http://www.w3.org/2000/svg"
 width="240.000000pt" height="240.000000pt" viewBox="0 0 240.000000 240.000000"
 preserveAspectRatio="xMidYMid meet">

<g transform="translate(0.000000,240.000000) scale(0.100000,-0.100000)"
fill="#000000" stroke="none">
<path d="M1080 2395 c-8 -2 -49 -9 -90 -15 -302 -49 -604 -244 -778 -501 -96
-143 -174 -330 -188 -453 -6 -52 -5 -58 11 -55 13 3 23 27 41 99 53 222 161
409 327 567 294 279 695 383 1090 282 362 -92 679 -386 800 -739 28 -81 62
-238 54 -246 -3 -3 -73 93 -156 214 -83 120 -162 229 -175 241 -31 29 -87 32
-117 5 -12 -10 -64 -81 -117 -156 -53 -76 -99 -138 -102 -138 -4 0 -98 132
-210 293 -111 160 -211 300 -222 310 -12 10 -36 17 -58 17 -22 0 -46 -7 -58
-17 -11 -10 -106 -143 -212 -295 -105 -153 -193 -278 -194 -278 -1 0 -39 53
-84 118 -45 66 -93 129 -106 141 -31 29 -87 32 -117 6 -11 -11 -111 -150 -221
-308 l-201 -289 7 -83 c41 -537 421 -970 958 -1091 107 -25 366 -25 478 0 472
103 835 465 936 936 24 113 25 372 1 478 -108 473 -457 829 -917 933 -77 18
-339 34 -380 24z m199 -401 l60 -87 -24 -18 c-30 -24 -51 -24 -82 1 -14 11
-33 20 -43 20 -10 0 -29 -9 -43 -20 -31 -25 -52 -25 -83 -1 l-23 18 60 87 c52
74 64 86 89 86 25 0 37 -12 89 -86z m-235 -143 c30 -33 64 -35 107 -6 l38 27
38 -26 c47 -32 51 -32 98 -1 20 15 39 25 40 23 12 -14 285 -410 285 -414 0 -9
-169 -252 -179 -258 -4 -3 -16 3 -26 14 -24 26 -123 56 -137 42 -18 -18 -1
-42 29 -42 36 -1 86 -28 111 -60 39 -50 42 -88 42 -587 l0 -482 -37 -10 c-21
-6 -48 -11 -60 -11 l-23 0 -2 512 c-3 479 -4 513 -20 516 -17 3 -18 -27 -18
-516 l0 -519 -37 -7 c-21 -3 -48 -6 -60 -6 l-23 0 0 526 c0 495 -1 525 -17
522 -17 -3 -18 -37 -21 -527 l-2 -523 -53 7 c-28 4 -56 10 -60 14 -4 5 -7 260
-5 567 3 610 1 587 62 667 30 39 107 84 151 89 27 3 30 0 33 -27 5 -51 10 -59
28 -45 11 10 14 28 12 64 l-3 51 -160 3 c-177 4 -245 -6 -299 -43 l-36 -24
-44 65 -44 66 131 189 c72 104 134 189 137 189 4 0 15 -9 24 -19z m-479 -166
l58 -85 -24 -19 c-30 -26 -45 -26 -76 -1 -14 11 -36 20 -48 20 -12 0 -34 -9
-48 -20 -31 -25 -46 -25 -76 1 l-24 20 53 77 c61 88 66 92 101 92 21 0 36 -15
84 -85z m1421 77 c5 -4 34 -42 64 -84 l53 -77 -24 -20 c-30 -26 -45 -26 -76
-1 -14 11 -36 20 -48 20 -12 0 -34 -9 -48 -20 -31 -25 -46 -25 -76 1 l-24 20
53 77 c60 85 66 92 95 92 11 0 25 -4 31 -8z m-1651 -222 c11 -12 31 -20 50
-20 18 0 44 9 58 20 14 11 28 20 32 20 4 0 18 -9 32 -20 34 -26 81 -26 110 2
23 22 24 22 42 2 10 -10 48 -62 84 -115 l66 -96 -25 -34 c-52 -71 -54 -91 -54
-647 l0 -514 -72 40 -73 40 -5 198 c-4 168 -7 199 -20 199 -13 0 -16 -29 -20
-183 l-5 -183 -33 28 -32 28 -3 155 c-2 130 -4 155 -17 155 -12 0 -15 -23 -18
-139 l-3 -139 -34 33 -35 34 0 133 0 132 108 3 c87 2 107 6 107 18 0 8 -10 16
-22 18 -22 3 -23 8 -23 78 0 41 -8 101 -17 134 -17 64 -32 76 -84 68 -32 -4
-59 -85 -66 -195 -5 -68 -8 -82 -24 -86 -16 -4 -19 -18 -21 -128 l-3 -124 -52
70 c-120 160 -197 369 -218 590 l-6 70 120 173 c159 231 145 216 176 182z
m1480 0 c11 -12 31 -20 50 -20 18 0 44 9 58 20 14 11 28 20 32 20 4 0 18 -9
32 -20 33 -26 81 -26 109 1 12 12 27 18 33 15 5 -3 59 -78 120 -166 123 -178
120 -166 100 -320 -22 -182 -81 -347 -177 -496 -99 -153 -92 -170 -92 235 0
330 -1 352 -17 349 -17 -3 -18 -30 -21 -379 l-2 -376 -25 -23 -25 -23 0 66 c0
60 -2 67 -20 67 -18 0 -20 -7 -20 -87 -1 -82 -2 -89 -25 -106 l-25 -18 0 106
c0 98 -1 105 -20 105 -18 0 -20 -8 -22 -121 -3 -113 -5 -123 -25 -137 l-23
-14 0 136 c0 129 -1 136 -20 136 -19 0 -20 -7 -20 -150 0 -137 -2 -150 -19
-160 -11 -5 -22 -10 -25 -10 -3 0 -6 234 -6 520 l0 520 180 0 c174 0 180 1
180 20 0 20 -5 20 -197 18 l-198 -3 -3 -546 c-2 -421 -5 -549 -15 -556 -11 -9
-123 -53 -133 -53 -2 0 -4 220 -4 490 0 411 -2 496 -15 534 l-15 45 116 168
c181 262 168 247 199 213z m-707 -197 c-26 -27 -57 -70 -70 -98 l-23 -50 -3
-567 c-2 -437 -6 -568 -15 -568 -7 0 -29 5 -49 11 l-38 10 0 505 c0 476 -1
505 -17 502 -17 -3 -18 -37 -23 -499 l-5 -496 -48 15 -48 15 3 536 3 536 28
53 c30 57 92 109 155 129 20 6 73 12 117 12 l79 1 -46 -47z m-638 -412 c0 -5
3 -23 6 -40 6 -30 5 -31 -29 -31 l-35 0 10 40 c8 29 16 40 29 40 11 0 19 -4
19 -9z m20 -166 l0 -55 -45 0 -45 0 0 48 c0 27 3 52 7 55 3 4 24 7 45 7 l38 0
0 -55z"/>
<path d="M432 1143 c2 -88 6 -108 18 -108 12 0 15 18 15 105 0 93 -2 105 -18
108 -16 3 -17 -5 -15 -105z"/>
<path d="M1777 1154 c-4 -4 -7 -67 -7 -141 0 -127 1 -133 20 -133 20 0 20 5
18 137 -3 127 -10 158 -31 137z"/>
<path d="M1867 1154 c-4 -4 -7 -67 -7 -141 0 -127 1 -133 20 -133 20 0 20 5
18 137 -3 127 -10 158 -31 137z"/>
<path d="M1957 1154 c-4 -4 -7 -67 -7 -141 0 -127 1 -133 20 -133 20 0 20 5
18 137 -3 127 -10 158 -31 137z"/>
<path d="M1775 818 c-3 -8 -4 -72 -3 -144 3 -107 6 -129 18 -129 13 0 15 22
15 139 0 103 -3 140 -12 143 -7 3 -15 -2 -18 -9z"/>
<path d="M1865 818 c-3 -8 -4 -72 -3 -144 3 -107 6 -129 18 -129 13 0 15 22
15 139 0 103 -3 140 -12 143 -7 3 -15 -2 -18 -9z"/>
<path d="M1955 818 c-3 -8 -4 -72 -3 -144 3 -107 6 -129 18 -129 13 0 15 22
15 139 0 103 -3 140 -12 143 -7 3 -15 -2 -18 -9z"/>
</g>
</svg>
