<?xml version="1.0" standalone="no"?>
<!DOCTYPE svg PUBLIC "-//W3C//DTD SVG 20010904//EN"
 "http://www.w3.org/TR/2001/REC-SVG-20010904/DTD/svg10.dtd">
<svg version="1.0" xmlns="http://www.w3.org/2000/svg"
 width="240.000000pt" height="240.000000pt" viewBox="0 0 240.000000 240.000000"
 preserveAspectRatio="xMidYMid meet">

<g transform="translate(0.000000,240.000000) scale(0.100000,-0.100000)"
fill="#000000" stroke="none">
<path d="M950 2359 c-111 -23 -261 -81 -360 -139 -406 -237 -638 -705 -580
-1166 64 -513 442 -919 951 -1024 90 -19 126 -21 274 -17 143 4 185 9 265 31
324 91 590 299 748 588 46 84 91 208 118 323 23 97 26 365 6 460 -32 149 -96
307 -171 423 l-41 62 -90 0 -90 0 0 -85 0 -85 119 0 c99 0 120 -3 125 -16 3
-9 6 -17 6 -20 0 -2 -55 -5 -122 -6 l-123 -3 -5 -550 -5 -550 -55 0 -55 0 -3
458 -2 457 -665 0 -665 0 -2 -457 -3 -458 -53 -3 -52 -3 0 543 c0 410 -3 547
-12 556 -8 8 -52 12 -130 12 -65 0 -118 3 -118 8 1 26 22 31 135 34 l120 3 0
80 0 80 -65 5 -65 5 70 74 c144 152 347 273 550 327 134 35 346 44 484 20 217
-38 433 -142 578 -279 33 -31 58 -47 68 -43 24 9 18 20 -32 67 -154 143 -354
244 -572 289 -134 27 -347 27 -481 -1z m-580 -544 l0 -45 -85 0 -86 0 12 23
c35 65 38 67 100 67 l59 0 0 -45z m1794 5 c14 -22 26 -42 26 -45 0 -3 -38 -5
-85 -5 l-85 0 0 45 0 45 59 0 c57 0 59 -1 85 -40z m-1794 -711 l0 -530 -37 3
-38 3 -3 133 -3 132 -89 0 c-65 0 -90 -3 -90 -12 -1 -31 -22 29 -41 112 -39
183 -33 391 18 558 l18 57 5 -50 c3 -35 9 -50 20 -50 11 0 16 14 18 58 3 51 1
59 -17 64 -17 4 -18 8 -9 29 11 23 14 24 130 24 l118 0 0 -531z m1732 449 c2
-66 6 -83 18 -83 12 0 16 17 18 83 l3 82 60 0 c66 0 84 -16 55 -49 -24 -26
-19 -114 7 -119 14 -3 17 4 17 45 1 64 13 42 42 -74 32 -127 32 -369 0 -496
-21 -85 -41 -137 -42 -109 0 9 -25 12 -90 12 l-89 0 -3 -132 -3 -133 -37 -3
-38 -3 0 530 0 531 40 0 39 0 3 -82z m-282 -538 l0 -440 -250 0 -250 0 0 86
c0 133 -35 184 -128 184 -82 0 -122 -62 -122 -190 l0 -80 -250 0 -250 0 0 440
0 440 625 0 625 0 0 -440z m-1570 -326 c0 -102 -2 -115 -17 -112 -9 2 -31 30
-49 63 -26 47 -34 72 -34 113 l0 52 50 0 50 0 0 -116z m1000 96 c26 -26 32
-52 28 -135 l-3 -70 -77 -3 -78 -3 0 95 c0 85 2 97 22 116 28 26 82 26 108 0z
m990 -32 c0 -40 -8 -68 -33 -113 -18 -33 -40 -61 -49 -63 -16 -3 -18 7 -18
112 l0 116 50 0 50 0 0 -52z m-111 -239 c-6 -12 -47 -59 -91 -105 -72 -75 -85
-84 -117 -84 -47 0 -67 -17 -46 -40 13 -14 6 -21 -68 -67 -178 -112 -347 -163
-567 -170 -164 -6 -272 8 -405 53 -87 29 -225 96 -294 142 -38 27 -41 31 -25
40 29 16 0 42 -46 42 -34 0 -45 8 -106 73 -38 39 -80 87 -92 105 l-23 32 946
0 946 0 -12 -21z"/>
<path d="M267 1583 c-12 -11 -8 -98 5 -111 28 -28 52 50 32 102 -6 16 -26 21
-37 9z"/>
<path d="M110 1251 c0 -55 2 -61 20 -61 19 0 21 5 18 57 -2 46 -7 59 -20 61
-16 3 -18 -5 -18 -57z"/>
<path d="M264 1297 c-3 -8 -4 -34 -2 -58 2 -36 7 -44 23 -44 18 0 20 7 20 55
0 44 -3 55 -18 58 -9 2 -20 -3 -23 -11z"/>
<path d="M110 969 c0 -52 2 -60 18 -57 13 2 18 15 20 61 3 52 1 57 -18 57 -18
0 -20 -6 -20 -61z"/>
<path d="M264 1017 c-3 -8 -4 -34 -2 -58 2 -36 7 -44 23 -44 18 0 20 7 20 55
0 44 -3 55 -18 58 -9 2 -20 -3 -23 -11z"/>
<path d="M2107 1374 c-10 -10 -9 -172 1 -178 4 -2 14 -1 20 3 9 5 12 33 10 91
-3 76 -12 102 -31 84z"/>
<path d="M2247 1373 c-13 -13 -8 -160 6 -172 22 -18 27 -2 27 91 0 67 -3 88
-13 88 -8 0 -17 -3 -20 -7z"/>
<path d="M2100 1009 c0 -81 2 -90 18 -87 14 3 17 17 20 91 3 82 2 87 -18 87
-19 0 -20 -6 -20 -91z"/>
<path d="M2244 1087 c-3 -8 -4 -47 -2 -88 2 -61 6 -74 21 -77 15 -3 17 6 17
87 0 75 -3 91 -15 91 -9 0 -18 -6 -21 -13z"/>
<path d="M682 1313 c2 -53 6 -68 18 -68 12 0 16 15 18 68 3 62 1 67 -18 67
-19 0 -21 -5 -18 -67z"/>
<path d="M924 1366 c-3 -7 -4 -38 -2 -67 2 -40 7 -54 18 -54 12 0 16 15 18 68
2 56 0 67 -13 67 -9 0 -18 -6 -21 -14z"/>
<path d="M1167 1374 c-9 -9 -9 -96 -1 -118 9 -24 33 -19 39 7 11 42 1 112 -15
115 -9 1 -19 0 -23 -4z"/>
<path d="M1410 1310 c0 -63 2 -71 18 -68 14 3 17 14 17 68 0 54 -3 65 -17 68
-16 3 -18 -5 -18 -68z"/>
<path d="M1652 1313 c2 -53 6 -68 18 -68 12 0 16 15 18 68 3 62 1 67 -18 67
-19 0 -21 -5 -18 -67z"/>
<path d="M685 1148 c-3 -8 -4 -59 -3 -114 2 -80 6 -99 18 -99 12 0 15 19 15
109 0 79 -4 111 -12 113 -7 3 -15 -2 -18 -9z"/>
<path d="M925 1148 c-3 -8 -4 -59 -3 -114 3 -85 5 -99 21 -102 16 -3 17 6 15
109 -2 79 -7 114 -15 117 -7 2 -15 -3 -18 -10z"/>
<path d="M1171 1146 c-8 -9 -11 -48 -9 -112 3 -91 5 -99 23 -99 18 0 20 8 23
101 2 77 -1 104 -11 113 -11 9 -17 8 -26 -3z"/>
<path d="M1417 1154 c-4 -4 -7 -56 -7 -116 0 -99 2 -109 18 -106 15 3 17 16
17 112 0 102 -7 130 -28 110z"/>
<path d="M1655 1148 c-3 -8 -4 -59 -3 -114 2 -80 6 -99 18 -99 12 0 15 19 15
109 0 79 -4 111 -12 113 -7 3 -15 -2 -18 -9z"/>
<path d="M682 753 c2 -53 6 -68 18 -68 12 0 16 15 18 68 3 62 1 67 -18 67 -19
0 -21 -5 -18 -67z"/>
<path d="M924 806 c-3 -7 -4 -38 -2 -67 2 -40 7 -54 18 -54 12 0 16 15 18 68
2 56 0 67 -13 67 -9 0 -18 -6 -21 -14z"/>
<path d="M1412 753 c2 -52 6 -68 18 -68 12 0 15 14 15 65 0 54 -3 65 -18 68
-16 3 -18 -3 -15 -65z"/>
<path d="M1652 753 c2 -53 6 -68 18 -68 12 0 16 15 18 68 3 62 1 67 -18 67
-19 0 -21 -5 -18 -67z"/>
<path d="M644 315 c-11 -29 11 -36 97 -33 76 3 84 5 84 23 0 18 -8 20 -88 23
-73 2 -88 0 -93 -13z"/>
<path d="M954 315 c-11 -27 7 -35 84 -35 83 0 108 9 99 34 -9 22 -175 24 -183
1z"/>
<path d="M1261 321 c-12 -8 -12 -12 -2 -25 10 -12 33 -16 90 -16 81 0 110 12
90 37 -13 15 -155 18 -178 4z"/>
<path d="M1564 315 c-11 -29 11 -36 97 -33 76 3 84 5 84 23 0 18 -8 20 -88 23
-73 2 -88 0 -93 -13z"/>
<path d="M919 2117 c-26 -17 -44 -22 -75 -19 -65 6 -124 -33 -124 -82 0 -25
19 -19 50 14 30 32 62 38 106 18 24 -11 28 -10 45 14 26 35 72 45 105 23 26
-17 44 -13 44 10 0 19 -51 45 -88 45 -16 0 -44 -10 -63 -23z"/>
<path d="M1069 1957 c-30 -20 -44 -24 -87 -19 -48 4 -54 2 -87 -31 -38 -38
-43 -54 -20 -63 9 -4 25 6 41 25 28 33 49 38 99 20 28 -11 33 -9 62 20 36 35
51 38 95 15 41 -21 62 -3 32 27 -33 33 -92 36 -135 6z"/>
<path d="M534 1676 c-3 -7 -4 -38 -2 -67 l3 -54 663 -3 663 -2 -3 67 -3 68
-658 3 c-551 2 -658 0 -663 -12z m1286 -56 l0 -30 -625 0 -625 0 0 30 0 30
625 0 625 0 0 -30z"/>
</g>
</svg>
